<svg xmlns="http://www.w3.org/2000/svg" width="900" height="520" viewBox="0 0 900 520">
<rect width="900" height="520" fill="white"/>
<g font-family="Arial, Helvetica, sans-serif" fill="#111">
<text x="450" y="34" text-anchor="middle" font-size="22" font-weight="700">V1 → V1b: raw hydraulic mismatch</text>
<text x="28" y="245" transform="rotate(-90 28 245)" text-anchor="middle" font-size="16">|V/Vref − 1| (%)</text>
<line x1="90" y1="430" x2="840" y2="430" stroke="#222"/>
<line x1="90" y1="70" x2="90" y2="430" stroke="#222"/>
<g stroke="#ddd">
<line x1="90" y1="340" x2="840" y2="340"/><line x1="90" y1="250" x2="840" y2="250"/>
<line x1="90" y1="160" x2="840" y2="160"/><line x1="90" y1="70" x2="840" y2="70"/>
</g>
<g font-size="13" text-anchor="end">
<text x="80" y="434">0</text><text x="80" y="344">20</text><text x="80" y="254">40</text><text x="80" y="164">60</text><text x="80" y="74">80</text>
</g>
<rect x="210" y="167.4" width="85" height="262.6" fill="#777"/>
<rect x="305" y="312.0" width="85" height="118.0" fill="#222"/>
<text x="252" y="157" text-anchor="middle" font-size="14">58.4%</text>
<text x="347" y="302" text-anchor="middle" font-size="14">26.2%</text>
<text x="300" y="462" text-anchor="middle" font-size="16">h = 26</text>
<rect x="540" y="98.3" width="85" height="331.7" fill="#777"/>
<rect x="635" y="232.9" width="85" height="197.1" fill="#222"/>
<text x="582" y="88" text-anchor="middle" font-size="14">73.7%</text>
<text x="677" y="223" text-anchor="middle" font-size="14">43.8%</text>
<text x="630" y="462" text-anchor="middle" font-size="16">h = 40</text>
<rect x="610" y="485" width="18" height="12" fill="#777"/><text x="635" y="496" font-size="13">V1</text>
<rect x="690" y="485" width="18" height="12" fill="#222"/><text x="715" y="496" font-size="13">V1b</text>
</g></svg>