<svg xmlns="http://www.w3.org/2000/svg" width="760" height="480" viewBox="0 0 760 480">
<style>text{font-family:Arial,sans-serif;fill:#111} .axis{stroke:#111;stroke-width:1.2}.grid{stroke:#ddd;stroke-width:1}.line{fill:none;stroke-width:2.2}.pt{stroke-width:1}.legend{font-size:13px}.tick{font-size:12px}.label{font-size:14px}.title{font-size:20px;font-weight:600}</style>
<rect width="100%" height="100%" fill="white"/>
<text x="380" y="30" text-anchor="middle" class="title">Asymmetric wall case — global mass history</text><line x1="90" y1="55" x2="90" y2="405" class="grid"/><text x="90" y="427" text-anchor="middle" class="tick">0.00</text><line x1="218" y1="55" x2="218" y2="405" class="grid"/><text x="218" y="427" text-anchor="middle" class="tick">300</text><line x1="346" y1="55" x2="346" y2="405" class="grid"/><text x="346" y="427" text-anchor="middle" class="tick">600</text><line x1="474" y1="55" x2="474" y2="405" class="grid"/><text x="474" y="427" text-anchor="middle" class="tick">900</text><line x1="602" y1="55" x2="602" y2="405" class="grid"/><text x="602" y="427" text-anchor="middle" class="tick">1.20e+3</text><line x1="730" y1="55" x2="730" y2="405" class="grid"/><text x="730" y="427" text-anchor="middle" class="tick">1.50e+3</text><line x1="90" y1="405" x2="730" y2="405" class="grid"/><text x="80" y="409" text-anchor="end" class="tick">-0.500</text><line x1="90" y1="335" x2="730" y2="335" class="grid"/><text x="80" y="339" text-anchor="end" class="tick">1.10</text><line x1="90" y1="265" x2="730" y2="265" class="grid"/><text x="80" y="269" text-anchor="end" class="tick">2.70</text><line x1="90" y1="195" x2="730" y2="195" class="grid"/><text x="80" y="199" text-anchor="end" class="tick">4.30</text><line x1="90" y1="124.99999999999999" x2="730" y2="124.99999999999999" class="grid"/><text x="80" y="129" text-anchor="end" class="tick">5.90</text><line x1="90" y1="55" x2="730" y2="55" class="grid"/><text x="80" y="59" text-anchor="end" class="tick">7.50</text><line x1="90" y1="405" x2="730" y2="405" class="axis"/><line x1="90" y1="55" x2="90" y2="405" class="axis"/>
<text x="410" y="458" text-anchor="middle" class="label">Time step</text>
<text x="22" y="230" transform="rotate(-90 22 230)" text-anchor="middle" class="label">Total mass change [%]</text><polyline points="90,383.125 169.78666666666666,497.23387304456236 249.57333333333332,440.34525252451675 329.36,382.55840834782447 409.14666666666665,323.85037735940875 488.9333333333333,264.20814517580374 568.72,203.62060729382617 648.5066666666667,142.07059309110292 728.2933333333333,79.54376608498784" class="line" stroke="#1f77b4"/><circle cx="90" cy="383.125" r="4" fill="#1f77b4" class="pt"/><circle cx="169.78666666666666" cy="497.23387304456236" r="4" fill="#1f77b4" class="pt"/><circle cx="249.57333333333332" cy="440.34525252451675" r="4" fill="#1f77b4" class="pt"/><circle cx="329.36" cy="382.55840834782447" r="4" fill="#1f77b4" class="pt"/><circle cx="409.14666666666665" cy="323.85037735940875" r="4" fill="#1f77b4" class="pt"/><circle cx="488.9333333333333" cy="264.20814517580374" r="4" fill="#1f77b4" class="pt"/><circle cx="568.72" cy="203.62060729382617" r="4" fill="#1f77b4" class="pt"/><circle cx="648.5066666666667" cy="142.07059309110292" r="4" fill="#1f77b4" class="pt"/><circle cx="728.2933333333333" cy="79.54376608498784" r="4" fill="#1f77b4" class="pt"/><polyline points="90,383.125 143.33333333333331,383.125000000098 196.66666666666666,383.12500000019895 250,383.12500000029917 303.3333333333333,383.1250000003994 356.6666666666667,383.12500000049954 410,383.1250000006005 463.33333333333337,383.12500000069997 516.6666666666666,383.1250000008009 570,383.12500000090114 623.3333333333334,383.1250000010006 676.6666666666666,383.12500000110157 730,383.1250000012018" class="line" stroke="#ff7f0e"/><circle cx="90" cy="383.125" r="4" fill="#ff7f0e" class="pt"/><circle cx="143.33333333333331" cy="383.125000000098" r="4" fill="#ff7f0e" class="pt"/><circle cx="196.66666666666666" cy="383.12500000019895" r="4" fill="#ff7f0e" class="pt"/><circle cx="250" cy="383.12500000029917" r="4" fill="#ff7f0e" class="pt"/><circle cx="303.3333333333333" cy="383.1250000003994" r="4" fill="#ff7f0e" class="pt"/><circle cx="356.6666666666667" cy="383.12500000049954" r="4" fill="#ff7f0e" class="pt"/><circle cx="410" cy="383.1250000006005" r="4" fill="#ff7f0e" class="pt"/><circle cx="463.33333333333337" cy="383.12500000069997" r="4" fill="#ff7f0e" class="pt"/><circle cx="516.6666666666666" cy="383.1250000008009" r="4" fill="#ff7f0e" class="pt"/><circle cx="570" cy="383.12500000090114" r="4" fill="#ff7f0e" class="pt"/><circle cx="623.3333333333334" cy="383.1250000010006" r="4" fill="#ff7f0e" class="pt"/><circle cx="676.6666666666666" cy="383.12500000110157" r="4" fill="#ff7f0e" class="pt"/><circle cx="730" cy="383.1250000012018" r="4" fill="#ff7f0e" class="pt"/><line x1="540" y1="70" x2="570" y2="70" stroke="#1f77b4" stroke-width="2.4"/><text x="580" y="74" class="legend">Pass 2 before Eq.(4) fix</text><line x1="540" y1="90" x2="570" y2="90" stroke="#ff7f0e" stroke-width="2.4"/><text x="580" y="94" class="legend">Pass 3 after Eq.(4) fix</text><text x="100" y="77" class="legend">pass 2 final change ~6.94%</text><text x="100" y="95" class="legend">pass 3 stays at f64 roundoff</text></svg>