<svg xmlns="http://www.w3.org/2000/svg" width="760" height="480" viewBox="0 0 760 480">
<style>text{font-family:Arial,sans-serif;fill:#111} .axis{stroke:#111;stroke-width:1.2}.grid{stroke:#ddd;stroke-width:1}.line{fill:none;stroke-width:2.2}.pt{stroke-width:1}.legend{font-size:13px}.tick{font-size:12px}.label{font-size:14px}.title{font-size:20px;font-weight:600}</style>
<rect width="100%" height="100%" fill="white"/>
<text x="380" y="30" text-anchor="middle" class="title">Axis-isotropy regression — equal wavelength</text><line x1="90" y1="55" x2="90" y2="405" class="grid"/><text x="90" y="427" text-anchor="middle" class="tick">0.00</text><line x1="218" y1="55" x2="218" y2="405" class="grid"/><text x="218" y="427" text-anchor="middle" class="tick">120</text><line x1="346" y1="55" x2="346" y2="405" class="grid"/><text x="346" y="427" text-anchor="middle" class="tick">240</text><line x1="474" y1="55" x2="474" y2="405" class="grid"/><text x="474" y="427" text-anchor="middle" class="tick">360</text><line x1="602" y1="55" x2="602" y2="405" class="grid"/><text x="602" y="427" text-anchor="middle" class="tick">480</text><line x1="730" y1="55" x2="730" y2="405" class="grid"/><text x="730" y="427" text-anchor="middle" class="tick">600</text><line x1="90" y1="405" x2="730" y2="405" class="grid"/><text x="80" y="409" text-anchor="end" class="tick">0.00</text><line x1="90" y1="335" x2="730" y2="335" class="grid"/><text x="80" y="339" text-anchor="end" class="tick">0.320</text><line x1="90" y1="265" x2="730" y2="265" class="grid"/><text x="80" y="269" text-anchor="end" class="tick">0.640</text><line x1="90" y1="194.99999999999997" x2="730" y2="194.99999999999997" class="grid"/><text x="80" y="198.99999999999997" text-anchor="end" class="tick">0.960</text><line x1="90" y1="125.00000000000001" x2="730" y2="125.00000000000001" class="grid"/><text x="80" y="129" text-anchor="end" class="tick">1.28</text><line x1="90" y1="55" x2="730" y2="55" class="grid"/><text x="80" y="59" text-anchor="end" class="tick">1.60</text><line x1="90" y1="405" x2="730" y2="405" class="axis"/><line x1="90" y1="55" x2="90" y2="405" class="axis"/>
<text x="410" y="458" text-anchor="middle" class="label">Time step</text>
<text x="22" y="230" transform="rotate(-90 22 230)" text-anchor="middle" class="label">Interface Fourier amplitude [lu]</text><polyline points="90,76.23816759334808 196.66666666666666,229.02319223587412 303.3333333333333,328.59914906681416 516.6666666666666,375.62996387224683 730,394.68470720798285" class="line" stroke="#1f77b4"/><circle cx="90" cy="76.23816759334808" r="4" fill="#1f77b4" class="pt"/><circle cx="196.66666666666666" cy="229.02319223587412" r="4" fill="#1f77b4" class="pt"/><circle cx="303.3333333333333" cy="328.59914906681416" r="4" fill="#1f77b4" class="pt"/><circle cx="516.6666666666666" cy="375.62996387224683" r="4" fill="#1f77b4" class="pt"/><circle cx="730" cy="394.68470720798285" r="4" fill="#1f77b4" class="pt"/><polyline points="90,76.23816759334798 196.66666666666666,229.02319223587477 303.3333333333333,328.5991490668167 516.6666666666666,375.629963872247 730,394.68470720798456" class="line" stroke="#ff7f0e"/><circle cx="90" cy="76.23816759334798" r="4" fill="#ff7f0e" class="pt"/><circle cx="196.66666666666666" cy="229.02319223587477" r="4" fill="#ff7f0e" class="pt"/><circle cx="303.3333333333333" cy="328.5991490668167" r="4" fill="#ff7f0e" class="pt"/><circle cx="516.6666666666666" cy="375.629963872247" r="4" fill="#ff7f0e" class="pt"/><circle cx="730" cy="394.68470720798456" r="4" fill="#ff7f0e" class="pt"/><line x1="540" y1="70" x2="570" y2="70" stroke="#1f77b4" stroke-width="2.4"/><text x="580" y="74" class="legend">wave along x, lambda=16</text><line x1="540" y1="90" x2="570" y2="90" stroke="#ff7f0e" stroke-width="2.4"/><text x="580" y="94" class="legend">wave along y, lambda=16</text><text x="100" y="77" class="legend">final relative asymmetry = 1.59e-13</text><text x="100" y="95" class="legend">axis-symmetry regression, not full rotational-isotropy proof</text></svg>